<?xml version="1.0" standalone="no"?>
<!DOCTYPE svg PUBLIC "-//W3C//DTD SVG 20010904//EN"
 "http://www.w3.org/TR/2001/REC-SVG-20010904/DTD/svg10.dtd">
<svg version="1.0" xmlns="http://www.w3.org/2000/svg"
 width="700.000000pt" height="700.000000pt" viewBox="0 0 700.000000 700.000000"
 preserveAspectRatio="xMidYMid meet">
<metadata>
Created by potrace 1.14, written by Peter Selinger 2001-2017
</metadata>
<g transform="translate(0.000000,700.000000) scale(0.100000,-0.100000)"
fill="#000000" stroke="none">
<path d="M2398 6345 c-2 -2 -17 -5 -34 -8 -67 -10 -131 -62 -159 -130 -11 -27
-16 -73 -16 -167 -1 -90 -5 -130 -13 -131 -6 0 -81 -2 -166 -4 -208 -4 -325
-32 -468 -112 -193 -107 -336 -282 -406 -496 -32 -98 -38 -145 -42 -322 -1
-82 -3 -153 -3 -156 -1 -3 -60 -6 -132 -7 -180 -2 -235 -28 -281 -131 -50
-110 -3 -233 112 -288 26 -12 67 -17 160 -19 69 -1 130 -2 135 -3 6 -1 10
-117 10 -326 l0 -325 -40 -1 c-22 0 -79 -1 -128 -1 -48 0 -104 -5 -124 -11
-45 -14 -109 -75 -129 -123 -36 -85 -8 -196 64 -252 54 -42 84 -49 217 -50 66
-1 125 -1 130 -2 8 0 13 -494 6 -635 -1 -20 -7 -21 -114 -20 -171 1 -229 -18
-281 -95 -21 -32 -28 -53 -40 -116 -7 -34 29 -123 65 -160 49 -51 95 -64 243
-66 l129 -3 3 -165 c3 -225 26 -326 111 -480 115 -209 339 -375 575 -426 44
-10 136 -17 233 -19 88 -2 163 -4 166 -4 3 -1 6 -59 7 -130 0 -106 4 -137 20
-173 62 -138 244 -174 349 -69 55 55 66 93 69 236 1 72 2 132 3 135 1 3 147 5
326 5 l325 0 0 -45 c2 -246 2 -247 52 -312 37 -47 105 -80 166 -80 88 1 152
40 194 118 22 42 26 62 26 139 1 50 1 110 2 135 l0 45 325 0 c179 0 325 -2
326 -5 1 -3 2 -63 4 -135 2 -144 13 -181 63 -231 90 -90 235 -86 318 8 46 52
55 91 57 234 l2 127 160 2 c201 2 339 30 435 86 8 5 25 13 38 19 78 34 209
146 281 242 124 166 172 320 176 573 2 88 4 163 4 166 1 4 60 7 132 8 105 0
139 4 172 20 154 69 174 282 35 376 -50 34 -90 41 -220 40 -65 0 -118 2 -119
5 0 3 -1 150 -2 328 l-2 322 60 1 c33 0 92 0 130 0 126 0 213 61 240 166 24
94 -17 190 -102 240 -50 29 -59 30 -293 33 l-35 0 2 317 c0 175 2 323 2 328 1
6 54 11 134 11 146 2 184 12 234 63 83 82 88 209 12 294 -57 66 -99 79 -254
79 l-130 1 0 136 c1 225 -23 341 -100 486 -110 209 -285 356 -507 429 -100 32
-159 40 -333 41 l-150 0 -3 130 c-2 147 -11 182 -56 233 -82 93 -232 98 -317
9 -52 -53 -62 -89 -64 -227 -2 -69 -3 -129 -4 -135 -1 -11 -635 -14 -646 -3
-4 4 -7 57 -7 120 0 149 -11 191 -64 244 -106 107 -278 80 -345 -53 -24 -46
-26 -63 -27 -165 -1 -62 -1 -122 -2 -133 0 -20 -6 -20 -317 -19 -175 1 -323 2
-329 3 -6 1 -10 43 -9 119 1 64 -3 133 -8 152 -21 79 -91 144 -172 159 -24 5
-46 7 -47 6z m2699 -1106 c51 -19 104 -62 126 -103 l22 -41 3 -1581 c2 -1540
2 -1583 -17 -1626 -21 -51 -57 -90 -104 -115 -30 -17 -128 -18 -1612 -21
-1444 -2 -1584 -1 -1623 14 -50 19 -92 56 -119 105 -17 33 -18 100 -18 1629 0
1499 1 1597 17 1627 33 59 76 95 137 114 41 12 3155 11 3188 -2z"/>
<path d="M2213 4812 c-21 -3 -23 -9 -24 -65 -3 -346 0 -2549 4 -2553 7 -7
2607 -7 2614 0 7 7 6 2606 0 2613 -6 5 -2555 10 -2594 5z"/>
</g>
</svg>
