<svg version="1.1" id="Layer_1" xmlns="http://www.w3.org/2000/svg" xmlns:xlink="http://www.w3.org/1999/xlink" x="0px" y="0px"
	 width="100%" viewBox="0 0 1024 1024" enable-background="new 0 0 1024 1024" xml:space="preserve">
<path fill="#000000" opacity="1.000000" stroke="none" 
	d="
M410.535095,780.615601 
	C375.752747,770.932068 343.518677,755.642395 310.125610,741.473511 
	C309.985535,740.776489 311.348480,739.727600 312.658020,739.321472 
	C317.918365,737.690002 320.417633,733.809448 322.697052,729.084900 
	C326.416870,721.374939 332.951019,716.023499 340.029846,711.488525 
	C357.818054,700.092529 377.224304,692.109985 397.067474,685.176697 
	C402.216736,683.377502 406.748871,680.879028 410.894806,677.441345 
	C446.657471,647.787109 468.959747,610.179382 477.357361,564.474854 
	C479.564270,552.463623 478.963104,540.246521 478.737183,528.084778 
	C478.678436,524.921509 477.169556,524.089233 474.340118,524.239990 
	C467.523621,524.603027 460.703369,524.949097 453.880096,525.116333 
	C446.008820,525.309204 442.644257,522.451111 439.980408,515.217957 
	C433.576660,497.829895 424.239563,481.805206 416.161774,465.194641 
	C414.486938,461.750671 412.569550,458.425171 410.871002,454.992126 
	C404.346191,441.804565 400.087677,428.126617 401.607727,413.127594 
	C401.938934,409.859589 401.656158,406.529358 401.656158,403.056854 
	C397.471375,402.505615 394.080078,405.761871 390.021027,404.226013 
	C390.342865,401.025146 392.716309,400.401306 395.067291,399.586395 
	C401.345428,397.410278 402.533173,395.588440 402.669220,389.003754 
	C402.807861,382.291229 401.971283,375.697449 400.344940,369.216187 
	C398.516296,361.928680 397.200653,354.564697 396.728607,347.073364 
	C396.540649,344.090210 395.089386,341.695923 393.801605,339.192017 
	C385.027069,322.130737 376.713501,304.845642 372.477539,286.011383 
	C369.515717,272.842529 367.545074,259.508575 369.629730,245.911896 
	C371.400818,234.360489 377.340149,229.394257 389.110962,228.649887 
	C426.211029,226.303787 461.078766,215.938828 494.015289,198.816269 
	C496.854797,197.340118 496.925812,195.100174 496.838013,192.534943 
	C496.522064,183.299011 498.734589,174.700363 503.508850,166.793976 
	C504.858582,164.558762 506.259338,162.221741 509.246674,162.096634 
	C510.414124,163.184158 509.859558,164.113739 509.349091,164.948593 
	C499.274658,181.425827 501.129639,198.209824 508.974060,214.601151 
	C530.420837,259.415375 595.126770,276.319916 635.881409,248.040268 
	C645.008423,241.707016 651.751221,233.391632 656.299561,223.294540 
	C658.023132,219.468140 659.164673,215.457840 658.966125,211.201035 
	C658.825500,208.185547 659.164612,204.416534 662.605652,204.824432 
	C666.186157,205.248871 665.066895,209.189835 664.606323,211.893906 
	C662.878845,222.036209 658.285095,230.780533 651.398865,238.346146 
	C647.808350,242.290878 644.102295,246.142715 639.808472,249.336929 
	C637.483521,251.066498 636.621521,252.991821 639.081726,254.984512 
	C642.458557,257.719727 643.480347,261.478119 644.410889,265.374878 
	C649.393677,286.242401 657.053528,306.414398 660.778809,327.600281 
	C663.931274,345.528503 666.014404,363.560455 661.835388,381.615753 
	C656.751221,403.581726 643.706177,420.609741 627.636719,435.678650 
	C616.652405,445.979004 604.428833,454.732239 591.772949,462.724396 
	C582.489258,468.587067 578.565735,476.133667 578.311523,486.923584 
	C577.523071,520.395630 580.357849,553.311646 589.400513,585.731323 
	C598.187317,617.233398 618.388550,639.842102 643.630798,658.873108 
	C660.903076,671.895264 680.496887,680.893188 699.727417,690.451355 
	C718.342346,699.703552 736.115051,710.040344 750.264282,725.644348 
	C751.813904,727.353271 754.301086,727.143555 755.999939,728.519104 
	C757.161316,729.459473 758.636597,730.380615 757.484436,732.162109 
	C756.668152,733.424316 755.421936,734.916016 753.833740,734.127747 
	C741.612976,728.062561 729.990906,733.273499 718.466858,736.262939 
	C689.716919,743.720947 665.035645,759.060730 641.811584,777.061279 
	C624.442627,790.523743 608.097534,805.254272 589.916748,817.731201 
	C571.256470,830.537109 552.034424,832.711914 531.299988,823.700317 
	C492.139832,806.680237 450.997650,795.183594 410.535095,780.615601 
M462.076691,519.428833 
	C465.901947,519.202698 469.727966,518.790833 473.552246,518.806274 
	C476.915710,518.819885 477.994781,517.516357 477.454773,514.243164 
	C476.533813,508.661316 475.857483,503.039520 475.042328,497.439789 
	C474.195740,491.623932 473.306274,485.814270 472.315369,479.199402 
	C475.277771,480.581055 475.789764,482.479065 476.440735,484.325256 
	C478.761139,490.905853 480.998077,497.430084 481.895142,504.475891 
	C484.259369,523.044800 485.996033,541.693848 482.937286,560.211487 
	C474.607605,610.639160 449.507507,651.235352 409.394379,682.701721 
	C406.394135,685.055237 403.717957,687.853943 399.849640,688.921570 
	C379.153320,694.633057 359.967438,703.848694 341.451538,714.506836 
	C334.547394,718.480957 328.860260,723.888184 326.130219,731.678101 
	C325.161774,734.441528 324.738770,737.397278 322.424225,739.882812 
	C341.482208,748.487061 359.825684,757.579956 379.175964,764.300537 
	C432.499542,782.820312 486.685974,798.878113 538.943298,820.439087 
	C556.599243,827.723694 573.015686,825.015076 588.725037,814.509155 
	C606.788208,802.429260 622.807983,787.793335 639.873474,774.470520 
	C666.547180,753.646790 695.180054,736.736633 728.601440,729.183411 
	C732.926086,728.206055 737.298035,727.437866 742.222473,726.458557 
	C741.275757,725.379517 740.805847,724.745850 740.240356,724.213867 
	C727.854492,712.563049 713.508728,703.887756 698.360474,696.358032 
	C678.373474,686.423096 657.945068,677.185608 639.978394,663.709167 
	C612.874207,643.378845 590.839539,619.399414 583.084778,584.867920 
	C579.506958,568.935974 576.484863,552.984680 574.204834,536.811096 
	C571.939697,520.742798 574.957581,504.375366 570.178101,488.406464 
	C567.931641,480.901276 568.898132,472.466125 565.333496,465.094910 
	C562.910583,460.084625 559.320618,456.127167 553.504456,455.328857 
	C544.551514,454.099976 536.959961,456.957306 531.447205,464.192566 
	C524.289856,473.586212 520.975464,484.198792 522.843384,496.045868 
	C523.272949,498.770264 522.221497,500.439331 520.077515,501.171631 
	C517.432556,502.075012 517.342590,499.438660 516.706665,497.883362 
	C514.942261,493.567963 513.408508,489.155029 511.553955,484.880219 
	C502.335938,463.632355 493.236755,442.318115 480.388885,422.895844 
	C478.488647,420.023254 476.571167,417.134369 473.775726,414.933899 
	C463.816772,428.863403 463.816772,428.863403 459.006897,428.633514 
	C469.152588,419.362762 471.510193,408.019196 469.408478,395.841156 
	C467.338531,383.847229 461.561218,373.631866 452.442413,364.836395 
	C451.478302,366.203247 450.828339,366.702972 450.781281,367.254150 
	C449.969757,376.758484 450.178436,386.227539 453.650696,395.228271 
	C454.527527,397.501221 455.666321,399.123718 453.004791,400.543610 
	C450.263519,402.006042 448.812866,400.024567 448.051941,397.983582 
	C446.902435,394.900360 446.244720,391.633789 445.279907,388.084229 
	C426.098236,386.983185 414.738403,374.334991 404.305695,358.302643 
	C404.964874,365.508881 406.859100,370.695160 407.413849,376.182709 
	C408.561554,387.536102 407.568420,398.859344 406.901184,410.117340 
	C406.011597,425.126648 409.461792,438.826263 416.176422,451.969727 
	C418.146942,455.826874 420.355255,459.571320 422.160980,463.502319 
	C429.589142,479.673248 439.584808,494.646637 445.044708,511.706360 
	C446.475677,516.177429 448.857086,518.414978 453.213745,519.221191 
	C455.873474,519.713379 458.513428,519.687378 462.076691,519.428833 
M481.590210,300.132416 
	C480.432495,297.549194 479.414093,294.892090 478.091431,292.396301 
	C473.815033,284.326996 467.025024,280.168579 457.905212,279.967529 
	C449.979797,279.792786 443.555908,285.815338 443.014343,293.767700 
	C442.034760,308.151794 448.875122,317.434143 463.154999,321.025879 
	C468.511505,322.373230 473.984283,322.938599 478.052856,318.355072 
	C482.461578,313.388336 484.728241,307.597626 481.590210,300.132416 
z"/>
<path fill="#000000" opacity="1.000000" stroke="none" 
	d="
M585.366577,203.774475 
	C567.308838,198.419754 550.779419,190.710297 535.348328,180.633423 
	C530.432556,177.423248 525.990234,173.702240 522.637451,168.806259 
	C516.960999,160.517105 518.075562,152.205521 525.903748,145.848923 
	C532.393616,140.579041 540.032959,137.959702 548.146790,136.291687 
	C576.180115,130.528610 601.608459,136.282059 624.689453,153.070938 
	C629.220642,156.366882 632.542419,160.656647 635.433411,165.247208 
	C642.955444,162.154037 655.105652,167.866547 659.412842,176.261612 
	C665.309937,187.755508 661.113586,200.099716 649.153015,206.126999 
	C640.567322,210.453613 631.295410,211.137497 621.903259,210.777649 
	C609.514709,210.303024 597.526367,207.617523 585.366577,203.774475 
M564.500977,160.292953 
	C564.893616,162.495865 566.044067,164.309372 567.413635,166.018982 
	C573.105347,173.123932 580.363831,178.143311 589.007568,180.658005 
	C600.461731,183.990341 612.166687,185.762543 623.890686,181.763550 
	C629.806335,179.745712 631.741089,175.364334 629.649719,169.510101 
	C627.769653,164.247299 623.757202,160.693649 619.503357,157.444443 
	C602.107239,144.157089 582.339844,138.250504 560.595703,139.522369 
	C551.320862,140.064880 541.954224,141.148666 533.353577,145.192078 
	C524.303345,149.446838 522.483032,156.516144 527.931091,164.789917 
	C531.234680,169.807083 535.912537,173.217728 540.786926,176.453735 
	C561.059692,189.912567 583.474731,198.265808 607.086609,203.311020 
	C619.299744,205.920639 631.819092,207.005646 644.213623,203.694504 
	C648.429016,202.568375 652.493103,201.148163 654.647766,196.749603 
	C659.995239,185.833237 651.992249,171.478088 639.286255,170.180405 
	C642.100037,179.724228 637.357605,185.863098 629.976929,190.674881 
	C627.010925,192.608505 623.605591,193.448959 620.192566,194.293030 
	C611.578857,196.423264 603.289001,194.337219 595.046021,192.354095 
	C582.422729,189.317123 570.759399,184.254333 561.016113,175.339310 
	C552.894348,167.908020 552.401001,159.490540 560.397034,152.064163 
	C569.364929,143.735031 580.615906,143.015015 591.821716,144.909653 
	C599.324951,146.178284 606.640564,149.024902 611.341553,155.935471 
	C614.673523,160.833511 614.541565,164.671631 610.663513,169.047150 
	C604.066711,176.490158 592.039062,177.393692 583.905945,171.057236 
	C579.893188,167.930939 579.296387,165.149918 581.913574,161.772507 
	C585.579895,157.041290 590.691406,155.555679 594.417175,158.158035 
	C594.359131,160.655655 591.323608,161.045227 590.747192,163.240540 
	C591.830811,165.926636 594.321350,166.718033 596.702454,167.216309 
	C600.334717,167.976395 605.069031,169.863983 607.032898,165.564499 
	C608.884460,161.510742 605.163940,158.403656 601.876343,156.379089 
	C591.338623,149.889755 580.223694,149.491562 568.835083,153.972488 
	C566.330383,154.957962 564.746704,156.783417 564.500977,160.292953 
z"/>
<path fill="#000000" opacity="1.000000" stroke="none" 
	d="
M504.169861,765.178406 
	C504.466644,771.263916 505.545074,776.839050 505.324921,782.524292 
	C505.210358,785.482605 504.511688,787.722351 501.284912,788.423401 
	C499.138123,786.972778 499.920502,784.783142 499.863312,782.912109 
	C499.516724,771.573425 498.560272,760.342712 494.530792,749.599792 
	C493.358063,746.473328 491.877594,743.496094 489.917847,740.784363 
	C488.500641,738.823364 486.898102,736.877319 489.840057,734.936035 
	C492.973175,732.868530 493.959869,735.778809 495.157867,737.528137 
	C499.759796,744.248047 501.971588,751.881836 503.299500,759.819763 
	C503.573486,761.457458 503.851837,763.094360 504.169861,765.178406 
z"/>
<path fill="#000000" opacity="1.000000" stroke="none" 
	d="
M610.584351,756.499573 
	C608.677490,768.385681 606.343384,779.802063 607.216797,791.525635 
	C607.387085,793.811829 606.328308,795.740601 604.060059,795.816895 
	C601.479553,795.903870 601.735229,793.413635 601.682495,791.686523 
	C601.237915,777.113953 604.674316,763.026611 607.169006,748.825073 
	C607.771118,745.397522 608.516174,741.989929 609.337952,738.607727 
	C610.033386,735.745300 611.513794,733.534973 615.319702,732.985474 
	C613.725891,740.944153 612.210144,748.513306 610.584351,756.499573 
z"/>
</svg>